<svg xmlns="http://www.w3.org/2000/svg" viewBox="0 0 128 128">
  <defs>
    <linearGradient id="bg" x1="18" y1="14" x2="110" y2="114" gradientUnits="userSpaceOnUse">
      <stop stop-color="#0F172A"/>
      <stop offset="1" stop-color="#1E3A8A"/>
    </linearGradient>
    <linearGradient id="cloud" x1="34" y1="38" x2="94" y2="92" gradientUnits="userSpaceOnUse">
      <stop stop-color="#F8FAFC"/>
      <stop offset="1" stop-color="#DBEAFE"/>
    </linearGradient>
  </defs>
  <rect width="128" height="128" rx="28" fill="url(#bg)"/>
  <circle cx="96" cy="28" r="14" fill="#FF9900"/>
  <circle cx="108" cy="52" r="10" fill="#4285F4"/>
  <circle cx="92" cy="56" r="10" fill="#0078D4"/>
  <path d="M41 88c-11.6 0-21-8.5-21-19s9.2-18.7 20.6-19C44 39.9 53.2 33 64 33c13.2 0 24 10.1 25.5 22.9 10.5 1.3 18.5 9.4 18.5 19.1 0 10.5-9.4 19-21 19H41Z" fill="url(#cloud)"/>
  <path d="M41 88c-11.6 0-21-8.5-21-19s9.2-18.7 20.6-19C44 39.9 53.2 33 64 33c13.2 0 24 10.1 25.5 22.9 10.5 1.3 18.5 9.4 18.5 19.1 0 10.5-9.4 19-21 19H41Z" fill="none" stroke="#BFDBFE" stroke-width="2"/>
  <path d="M46 74h36" stroke="#1D4ED8" stroke-width="6" stroke-linecap="round"/>
  <path d="M46 62h24" stroke="#10B981" stroke-width="6" stroke-linecap="round"/>
</svg>
