<svg width="1200" height="630" viewBox="0 0 1200 630" fill="none" xmlns="http://www.w3.org/2000/svg">
  <defs>
    <linearGradient id="bg" x1="84" y1="44" x2="1094" y2="600" gradientUnits="userSpaceOnUse">
      <stop stop-color="#0F172A"/>
      <stop offset="1" stop-color="#172554"/>
    </linearGradient>
    <linearGradient id="cloud" x1="792" y1="170" x2="1038" y2="390" gradientUnits="userSpaceOnUse">
      <stop stop-color="#F8FAFC"/>
      <stop offset="1" stop-color="#DBEAFE"/>
    </linearGradient>
  </defs>
  <rect width="1200" height="630" fill="#09101D"/>
  <rect x="36" y="36" width="1128" height="558" rx="32" fill="url(#bg)"/>
  <circle cx="1048" cy="126" r="146" fill="#1D4ED8" fill-opacity="0.18"/>
  <circle cx="184" cy="122" r="132" fill="#F59E0B" fill-opacity="0.16"/>
  <circle cx="1034" cy="520" r="208" fill="#10B981" fill-opacity="0.1"/>

  <rect x="88" y="86" width="280" height="44" rx="22" fill="#E2E8F0" fill-opacity="0.14"/>
  <text x="108" y="115" fill="#E5EEF9" font-family="Pretendard, Apple SD Gothic Neo, sans-serif" font-size="22" font-weight="700">What's New 한국어 요약</text>

  <text x="88" y="202" fill="#F8FAFC" font-family="Pretendard, Apple SD Gothic Neo, sans-serif" font-size="68" font-weight="800">클라우드 최신 업데이트</text>
  <text x="88" y="278" fill="#93C5FD" font-family="Pretendard, Apple SD Gothic Neo, sans-serif" font-size="52" font-weight="700">한국어 요약</text>
  <text x="88" y="362" fill="#CBD5E1" font-family="Pretendard, Apple SD Gothic Neo, sans-serif" font-size="31" font-weight="500">AWS · Google Cloud · Azure 공식 소식을 한국어로 요약합니다</text>

  <rect x="88" y="424" width="124" height="14" rx="7" fill="#FF9900"/>
  <rect x="226" y="424" width="124" height="14" rx="7" fill="#4285F4"/>
  <rect x="364" y="424" width="124" height="14" rx="7" fill="#0078D4"/>

  <text x="88" y="512" fill="#F8FAFC" font-family="Pretendard, Apple SD Gothic Neo, sans-serif" font-size="40" font-weight="700">AWS · GCP · Azure</text>
  <text x="88" y="558" fill="#94A3B8" font-family="Pretendard, Apple SD Gothic Neo, sans-serif" font-size="26" font-weight="500">whats-new.kr</text>

  <circle cx="955" cy="142" r="26" fill="#FF9900"/>
  <circle cx="1013" cy="112" r="22" fill="#4285F4"/>
  <circle cx="1044" cy="164" r="22" fill="#0078D4"/>
  <path d="M917 582c-48.1 0-87-35.8-87-80.1 0-43 35.8-77.1 81-79.8 13.6-49.2 59.7-84.9 114.6-84.9 66.6 0 121.2 51 128.8 115.8 52.1 6.8 92 46.4 92 93.9 0 51.2-46.8 92.7-104.6 92.7H917Z" fill="url(#cloud)"/>
  <path d="M917 582c-48.1 0-87-35.8-87-80.1 0-43 35.8-77.1 81-79.8 13.6-49.2 59.7-84.9 114.6-84.9 66.6 0 121.2 51 128.8 115.8 52.1 6.8 92 46.4 92 93.9 0 51.2-46.8 92.7-104.6 92.7H917Z" fill="none" stroke="#BFDBFE" stroke-width="3"/>
  <path d="M945 510h180" stroke="#1D4ED8" stroke-width="22" stroke-linecap="round"/>
  <path d="M980 460h120" stroke="#10B981" stroke-width="22" stroke-linecap="round"/>
</svg>
